<svg width="24" height="24" viewBox="0 0 24 24" fill="none" xmlns="http://www.w3.org/2000/svg">
<path d="M4.28572 3.85715C4.28572 3.51616 4.42118 3.18913 4.66229 2.94801C4.90341 2.7069 5.23044 2.57144 5.57143 2.57144H12V8.14287C12 8.42427 12.0554 8.70292 12.1631 8.9629C12.2708 9.22289 12.4286 9.45911 12.6276 9.65809C13.0295 10.06 13.5745 10.2857 14.1429 10.2857H19.7143V20.1429C19.7143 20.4839 19.5788 20.8109 19.3377 21.052C19.0966 21.2931 18.7696 21.4286 18.4286 21.4286H5.57143C5.23044 21.4286 4.90341 21.2931 4.66229 21.052C4.42118 20.8109 4.28572 20.4839 4.28572 20.1429V3.85715ZM19.6834 9.42858H14.1429C13.8019 9.42858 13.4748 9.29312 13.2337 9.052C12.9926 8.81088 12.8571 8.48386 12.8571 8.14287V2.60229C13.0929 2.65544 13.3114 2.77372 13.4846 2.94772L19.338 8.80115C19.5103 8.97335 19.63 9.19094 19.6834 9.42858ZM5.57143 1.71429C5.00311 1.71429 4.45807 1.94006 4.0562 2.34192C3.65434 2.74379 3.42857 3.28883 3.42857 3.85715V20.1429C3.42857 20.7112 3.65434 21.2562 4.0562 21.6581C4.45807 22.06 5.00311 22.2857 5.57143 22.2857H18.4286C18.71 22.2857 18.9886 22.2303 19.2486 22.1226C19.5086 22.0149 19.7448 21.8571 19.9438 21.6581C20.1428 21.4591 20.3006 21.2229 20.4083 20.9629C20.516 20.7029 20.5714 20.4243 20.5714 20.1429V9.70972C20.5713 9.14166 20.3456 8.59689 19.944 8.19515L14.0906 2.34172C13.6888 1.94009 13.1441 1.71442 12.576 1.71429H5.57143Z" fill="#B0B3BA"/>
</svg>
