<svg width="70" height="58" viewBox="0 0 70 58" fill="none" xmlns="http://www.w3.org/2000/svg">
<path d="M21.0486 4.20001C21.0821 4.20012 22.5122 4.2095 23.4861 5.01642C24.469 5.83076 28.4191 8.70235 28.4441 8.72052H57.1501C57.181 8.72166 58.6772 8.78134 60.0486 9.53595C61.3323 9.791 62.2996 10.9234 62.2996 12.282V17.2459C62.2993 18.7921 61.046 20.0457 59.4998 20.0457H6.99976C5.4536 20.0456 4.20019 18.792 4.19995 17.2459V12.282C4.19995 12.2691 4.20173 12.2559 4.2019 12.243V9.20685C4.23314 8.21532 4.67183 4.24722 9.6814 4.20001H21.0486Z" fill="#E1BD88"/>
<rect x="4.19995" y="10.8023" width="58.1" height="40.9341" rx="2.62821" fill="#F8D4A2"/>
</svg>
