<svg width="24" height="24" viewBox="0 0 24 24" fill="none" xmlns="http://www.w3.org/2000/svg">
<path d="M12 1.71429V8.57144C12 9.02609 12.1806 9.46213 12.5021 9.78362C12.8236 10.1051 13.2596 10.2857 13.7143 10.2857H20.5706L20.5714 10.3526V20.2286C20.5714 20.7742 20.3547 21.2974 19.9689 21.6832C19.5831 22.069 19.0599 22.2857 18.5143 22.2857H5.48572C4.94013 22.2857 4.41689 22.069 4.0311 21.6832C3.64531 21.2974 3.42857 20.7742 3.42857 20.2286V3.77144C3.42857 3.22585 3.64531 2.70261 4.0311 2.31682C4.41689 1.93103 4.94013 1.71429 5.48572 1.71429H12Z" fill="#FFB949"/>
<path d="M13.2857 2.12143V8.57143C13.2857 8.68509 13.3309 8.7941 13.4112 8.87448C13.4916 8.95485 13.6006 9 13.7143 9H20.1446C20.0653 8.8886 19.9773 8.7837 19.8814 8.68629L13.512 2.31686C13.4414 2.24631 13.3658 2.181 13.2857 2.12143Z" fill="#FFB949"/>
</svg>
